<svg version="1.2" xmlns="http://www.w3.org/2000/svg" viewBox="0 0 512 96" width="512" height="96"><style>.a{fill:#00b67a}.b{fill:#fff}</style><path class="a" d="m0 0h96v96h-96z"/><path class="a" d="m104 0h96v96h-96z"/><path class="a" d="m208 0h96v96h-96z"/><path class="a" d="m312 0h96v96h-96z"/><path class="a" d="m416 0h48v96h-48z"/><path fill-rule="evenodd" class="b" d="m68.7 79.8l-6.1-18.8-14.6 3.7zm12.9-39.4h-25.7l-7.9-24.2-7.9 24.2h-25.7l20.8 15-7.9 24.2 20.8-15 12.8-9.2z"/><path fill-rule="evenodd" class="b" d="m172.7 79.8l-6.1-18.8-14.6 3.7zm12.9-39.4h-25.7l-7.9-24.2-7.9 24.2h-25.7l20.8 15-7.9 24.2 20.8-15 12.8-9.2z"/><path fill-rule="evenodd" class="b" d="m276.7 79.8l-6.1-18.8-14.6 3.7zm12.9-39.4h-25.7l-7.9-24.2-7.9 24.2h-25.7l20.8 15-7.9 24.2 20.8-15 12.8-9.2z"/><path fill-rule="evenodd" class="b" d="m380.7 79.8l-6.1-18.8-14.6 3.7zm12.9-39.4h-25.7l-7.9-24.2-7.9 24.2h-25.7l20.8 15-7.9 24.2 20.8-15 12.8-9.2z"/><path fill-rule="evenodd" class="b" d="m484.7 79.8l-6.1-18.8-14.6 3.7zm12.9-39.4h-25.7l-7.9-24.2-7.9 24.2h-25.7l20.8 15-7.9 24.2 20.8-15 12.8-9.2z"/></svg>